<svg width="60" height="60" viewBox="0 0 60 60" fill="none" xmlns="http://www.w3.org/2000/svg">
<rect width="60" height="60" rx="30" fill="#A23EFF"/>
<path d="M42.5 38.75V42.5H17.5V38.75C17.5 38.0625 18.0625 37.5 18.75 37.5H41.25C41.9375 37.5 42.5 38.0625 42.5 38.75Z" fill="white" stroke="white" stroke-width="1.5" stroke-miterlimit="10" stroke-linecap="round" stroke-linejoin="round"/>
<path d="M23.75 28.75H21.25V37.5H23.75V28.75Z" fill="white"/>
<path d="M28.75 28.75H26.25V37.5H28.75V28.75Z" fill="white"/>
<path d="M33.75 28.75H31.25V37.5H33.75V28.75Z" fill="white"/>
<path d="M38.75 28.75H36.25V37.5H38.75V28.75Z" fill="white"/>
<path d="M43.75 43.4375H16.25C15.7375 43.4375 15.3125 43.0125 15.3125 42.5C15.3125 41.9875 15.7375 41.5625 16.25 41.5625H43.75C44.2625 41.5625 44.6875 41.9875 44.6875 42.5C44.6875 43.0125 44.2625 43.4375 43.75 43.4375Z" fill="white"/>
<path d="M41.7125 22.1873L30.4625 17.6873C30.2125 17.5873 29.7875 17.5873 29.5375 17.6873L18.2875 22.1873C17.85 22.3623 17.5 22.8748 17.5 23.3498V27.4998C17.5 28.1873 18.0625 28.7498 18.75 28.7498H41.25C41.9375 28.7498 42.5 28.1873 42.5 27.4998V23.3498C42.5 22.8748 42.15 22.3623 41.7125 22.1873ZM30 25.6248C28.9625 25.6248 28.125 24.7873 28.125 23.7498C28.125 22.7123 28.9625 21.8748 30 21.8748C31.0375 21.8748 31.875 22.7123 31.875 23.7498C31.875 24.7873 31.0375 25.6248 30 25.6248Z" fill="white"/>
</svg>
