<svg width="551" height="674" viewBox="0 0 551 674" fill="none" xmlns="http://www.w3.org/2000/svg">
<path d="M421.325 153.136H417.784V56.1392C417.784 41.2502 411.869 26.9709 401.341 16.4428C390.813 5.91467 376.534 1.85655e-05 361.645 3.56295e-10H156.144C148.772 -2.62641e-05 141.471 1.45203 134.66 4.27326C127.849 7.09449 121.66 11.2296 116.447 16.4426C111.234 21.6556 107.099 27.8443 104.278 34.6554C101.457 41.4665 100.005 48.7666 100.005 56.1389V588.271C100.005 595.644 101.457 602.944 104.278 609.755C107.099 616.566 111.234 622.755 116.447 627.968C121.66 633.181 127.849 637.316 134.66 640.137C141.471 642.958 148.771 644.411 156.144 644.411H361.645C369.017 644.411 376.317 642.958 383.128 640.137C389.939 637.316 396.128 633.181 401.341 627.968C406.554 622.755 410.689 616.566 413.51 609.755C416.332 602.944 417.784 595.644 417.784 588.272V222.18H421.325V153.136Z" fill="#3F3D56"/>
<path d="M363.487 15.9336H336.662C337.896 18.958 338.367 22.2393 338.034 25.4885C337.7 28.7378 336.573 31.8552 334.751 34.5662C332.929 37.2771 330.469 39.4984 327.586 41.0344C324.703 42.5704 321.487 43.3739 318.221 43.3742H200.492C197.226 43.3739 194.01 42.5704 191.127 41.0344C188.245 39.4984 185.784 37.2771 183.962 34.5662C182.14 31.8552 181.013 28.7378 180.68 25.4886C180.346 22.2393 180.817 18.958 182.051 15.9336H156.996C145.878 15.9336 135.214 20.3505 127.352 28.2128C119.489 36.0751 115.072 46.7386 115.072 57.8576V589.209C115.072 594.715 116.157 600.166 118.264 605.253C120.37 610.339 123.459 614.961 127.352 618.854C131.245 622.747 135.866 625.835 140.953 627.942C146.039 630.049 151.491 631.133 156.996 631.133H363.487C374.606 631.133 385.27 626.716 393.132 618.854C400.994 610.992 405.411 600.328 405.411 589.209V57.8577C405.411 52.3521 404.327 46.9005 402.22 41.814C400.113 36.7275 397.025 32.1059 393.132 28.2129C389.239 24.3198 384.617 21.2317 379.531 19.1249C374.444 17.018 368.993 15.9336 363.487 15.9336ZM358.98 262.431C358.972 265.308 357.825 268.066 355.79 270.1C353.756 272.135 350.999 273.282 348.121 273.29H295.635C292.758 273.282 290 272.135 287.966 270.1C285.931 268.066 284.784 265.308 284.776 262.431V259.716C284.784 256.839 285.931 254.082 287.966 252.047C290 250.012 292.758 248.865 295.635 248.857H348.121C350.999 248.865 353.756 250.012 355.79 252.047C357.825 254.082 358.972 256.839 358.98 259.716V262.431ZM364.862 214.469C364.854 217.347 363.707 220.104 361.673 222.139C359.638 224.173 356.881 225.32 354.003 225.329H165.777C162.9 225.32 160.142 224.173 158.108 222.139C156.073 220.104 154.926 217.347 154.918 214.469V211.755C154.926 208.877 156.073 206.12 158.108 204.085C160.142 202.051 162.9 200.904 165.777 200.896H354.003C356.881 200.904 359.638 202.051 361.673 204.085C363.707 206.12 364.854 208.877 364.862 211.755V214.469ZM364.862 166.508C364.854 169.385 363.707 172.143 361.673 174.177C359.638 176.212 356.881 177.359 354.003 177.367H165.777C162.9 177.359 160.142 176.212 158.108 174.177C156.073 172.143 154.926 169.385 154.918 166.508V163.793C154.926 160.916 156.073 158.159 158.108 156.124C160.142 154.089 162.9 152.942 165.777 152.934H354.003C356.881 152.942 359.638 154.089 361.673 156.124C363.707 158.159 364.854 160.916 364.862 163.793V166.508ZM364.862 118.547C364.854 121.424 363.707 124.181 361.673 126.216C359.638 128.251 356.881 129.397 354.003 129.406H165.777C162.9 129.397 160.142 128.251 158.108 126.216C156.073 124.181 154.926 121.424 154.918 118.547V115.832C154.926 112.954 156.073 110.197 158.108 108.162C160.142 106.128 162.9 104.981 165.777 104.973H354.003C356.881 104.981 359.638 106.128 361.673 108.162C363.707 110.197 364.854 112.954 364.862 115.832V118.547Z" fill="white"/>
<path d="M169.849 219.899C173.348 219.899 176.184 217.062 176.184 213.564C176.184 210.066 173.348 207.229 169.849 207.229C166.351 207.229 163.515 210.066 163.515 213.564C163.515 217.062 166.351 219.899 169.849 219.899Z" fill="white"/>
<path d="M190.663 219.899C194.161 219.899 196.997 217.062 196.997 213.564C196.997 210.066 194.161 207.229 190.663 207.229C187.164 207.229 184.328 210.066 184.328 213.564C184.328 217.062 187.164 219.899 190.663 219.899Z" fill="white"/>
<path d="M211.476 219.899C214.975 219.899 217.811 217.062 217.811 213.564C217.811 210.066 214.975 207.229 211.476 207.229C207.978 207.229 205.142 210.066 205.142 213.564C205.142 217.062 207.978 219.899 211.476 219.899Z" fill="white"/>
<path d="M232.29 219.899C235.788 219.899 238.624 217.062 238.624 213.564C238.624 210.066 235.788 207.229 232.29 207.229C228.791 207.229 225.955 210.066 225.955 213.564C225.955 217.062 228.791 219.899 232.29 219.899Z" fill="white"/>
<path d="M300.16 267.86C303.658 267.86 306.494 265.024 306.494 261.526C306.494 258.027 303.658 255.191 300.16 255.191C296.661 255.191 293.825 258.027 293.825 261.526C293.825 265.024 296.661 267.86 300.16 267.86Z" fill="white"/>
<path d="M320.973 267.86C324.472 267.86 327.308 265.024 327.308 261.526C327.308 258.027 324.472 255.191 320.973 255.191C317.475 255.191 314.639 258.027 314.639 261.526C314.639 265.024 317.475 267.86 320.973 267.86Z" fill="white"/>
<path d="M341.787 267.86C345.285 267.86 348.121 265.024 348.121 261.526C348.121 258.027 345.285 255.191 341.787 255.191C338.288 255.191 335.452 258.027 335.452 261.526C335.452 265.024 338.288 267.86 341.787 267.86Z" fill="white"/>
<path d="M366.319 343.602H151.652C146.609 343.602 141.772 345.605 138.206 349.171C134.64 352.737 132.636 357.574 132.636 362.617V467.207C132.636 472.25 134.64 477.087 138.206 480.653C141.772 484.219 146.609 486.223 151.652 486.223H366.319C371.362 486.223 376.199 484.22 379.765 480.653C383.331 477.087 385.334 472.251 385.334 467.207V362.617C385.334 357.574 383.331 352.737 379.765 349.171C376.199 345.605 371.362 343.602 366.319 343.602ZM146.341 356.573C146.765 356.497 156.816 354.786 165.14 359.794C173.463 364.802 176.661 374.485 176.793 374.894L177.129 375.938L176.049 376.13C174.508 376.371 172.95 376.485 171.391 376.472C166.443 376.567 161.561 375.336 157.249 372.908C148.926 367.901 145.729 358.218 145.597 357.809L145.26 356.765L146.341 356.573ZM192.939 453.678H154.652C151.859 453.678 149.181 452.569 147.206 450.595C145.232 448.62 144.122 445.942 144.122 443.149C144.122 440.357 145.232 437.679 147.206 435.704C149.181 433.73 151.859 432.62 154.652 432.62H192.939C195.732 432.62 198.41 433.73 200.384 435.704C202.359 437.679 203.468 440.357 203.468 443.149C203.468 445.942 202.359 448.62 200.384 450.595C198.41 452.569 195.732 453.678 192.939 453.678ZM367.148 451.764C367.139 454.808 365.926 457.724 363.774 459.876C361.621 462.028 358.705 463.241 355.661 463.25H326.946C323.902 463.241 320.986 462.028 318.834 459.876C316.681 457.724 315.468 454.808 315.46 451.764V434.535C315.468 431.491 316.681 428.575 318.834 426.422C320.986 424.27 323.902 423.057 326.946 423.048H355.661C358.705 423.057 361.621 424.27 363.774 426.422C365.926 428.575 367.139 431.491 367.148 434.535L367.148 451.764Z" fill="#6C63FF"/>
<path d="M336.204 448.213H324.659C323.834 448.213 323.043 448.54 322.46 449.123C321.878 449.706 321.55 450.497 321.55 451.321C321.55 452.146 321.878 452.936 322.46 453.519C323.043 454.102 323.834 454.43 324.659 454.43H336.204C337.029 454.43 337.819 454.102 338.402 453.519C338.985 452.936 339.313 452.146 339.313 451.321C339.313 450.497 338.985 449.706 338.402 449.123C337.819 448.54 337.029 448.213 336.204 448.213Z" fill="#3F3D56"/>
<path d="M357.52 448.213H345.974C345.149 448.213 344.359 448.54 343.776 449.123C343.193 449.706 342.865 450.497 342.865 451.321C342.865 452.146 343.193 452.936 343.776 453.519C344.359 454.102 345.149 454.43 345.974 454.43H357.52C358.344 454.43 359.135 454.102 359.718 453.519C360.301 452.936 360.628 452.146 360.628 451.321C360.628 450.497 360.301 449.706 359.718 449.123C359.135 448.54 358.344 448.213 357.52 448.213Z" fill="#3F3D56"/>
<path d="M336.203 439.438H324.657C323.832 439.438 323.042 439.766 322.459 440.349C321.876 440.932 321.548 441.723 321.548 442.547C321.548 443.371 321.876 444.162 322.459 444.745C323.042 445.328 323.832 445.655 324.657 445.655H336.203C337.027 445.655 337.818 445.328 338.401 444.745C338.984 444.162 339.311 443.371 339.311 442.547C339.311 441.723 338.984 440.932 338.401 440.349C337.818 439.766 337.027 439.438 336.203 439.438Z" fill="#3F3D56"/>
<path d="M357.518 439.438H345.972C345.148 439.438 344.357 439.766 343.774 440.349C343.191 440.932 342.864 441.723 342.864 442.547C342.864 443.371 343.191 444.162 343.774 444.745C344.357 445.328 345.148 445.655 345.972 445.655H357.518C358.342 445.655 359.133 445.328 359.716 444.745C360.299 444.162 360.626 443.371 360.626 442.547C360.626 441.723 360.299 440.932 359.716 440.349C359.133 439.766 358.342 439.438 357.518 439.438Z" fill="#3F3D56"/>
<path d="M336.203 430.841H324.657C323.832 430.841 323.042 431.168 322.459 431.751C321.876 432.334 321.548 433.125 321.548 433.949C321.548 434.774 321.876 435.564 322.459 436.147C323.042 436.73 323.832 437.058 324.657 437.058H336.203C337.027 437.058 337.818 436.73 338.401 436.147C338.984 435.564 339.311 434.774 339.311 433.949C339.311 433.125 338.984 432.334 338.401 431.751C337.818 431.168 337.027 430.841 336.203 430.841Z" fill="#3F3D56"/>
<path d="M357.518 430.841H345.972C345.148 430.841 344.357 431.168 343.774 431.751C343.191 432.334 342.864 433.125 342.864 433.949C342.864 434.774 343.191 435.564 343.774 436.147C344.357 436.73 345.148 437.058 345.972 437.058H357.518C358.342 437.058 359.133 436.73 359.716 436.147C360.299 435.564 360.626 434.774 360.626 433.949C360.626 433.125 360.299 432.334 359.716 431.751C359.133 431.168 358.342 430.841 357.518 430.841Z" fill="#3F3D56"/>
<path d="M515 383H487V411H515V383Z" fill="#E6E6E6"/>
<path d="M454 400H500V446H454V400ZM498 402H456V444H498V402Z" fill="#3F3D56"/>
<path d="M28 152H0V180H28V152Z" fill="#E6E6E6"/>
<path d="M61 163H15V117H61V163ZM17 161H59V119H17V161Z" fill="#3F3D56"/>
</svg>
