<svg width="60" height="60" viewBox="0 0 60 60" fill="none" xmlns="http://www.w3.org/2000/svg">
<g id="guaranty_trust_bank logo">
<g clip-path="url(#clip0_715_4316)">
<path id="Vector" fill-rule="evenodd" clip-rule="evenodd" d="M0.5 0H59.7857V60H0.5V0Z" fill="#D94F00"/>
<path id="Vector_2" fill-rule="evenodd" clip-rule="evenodd" d="M34.2306 11.6348H49.4286V26.8633H34.2306V11.6348ZM15.8571 34.5664V36.0562H18.4765V43.9378H20.2826V35.996H22.7214V34.5062L15.8571 34.5674V34.5664ZM14.5082 36.4133V34.9235C13.0592 34.2684 11.3928 34.0705 9.68672 34.9235C6.88877 36.1746 6.78877 42.3695 9.58775 43.5807C11.1949 44.395 14.5469 44.0174 14.8847 43.3021V38.398H11.552V39.6888H13.0194V42.2705C8.19795 44.6133 7.30509 33.3552 14.5082 36.4133ZM25.6592 39.6093H27.3847C28.8133 39.6695 29.1908 42.3695 27.3255 42.3491H25.6592V39.6093ZM25.6592 35.8174H27.3847C28.8133 36.0756 28.298 38.2001 27.3255 38.2593H25.6592V35.8174ZM23.8735 34.3684V43.8582H28.6153C31.0357 42.9848 31.1357 39.2327 28.6153 38.8348C30.9367 38.5776 31.0561 34.3082 27.048 34.3082L23.8735 34.3684ZM32.2459 37.0286V38.4378C33.5153 38.0807 36.2735 37.0878 36.0153 39.1929C33.5949 39.0337 31.948 39.4705 31.6704 40.9786C31.2143 44.2358 34.7061 44.5531 36.1745 42.945V43.7195H37.8408V38.0011C37.4245 36.1542 34.6673 35.9164 32.2459 37.0286ZM33.6541 40.7021C34.0316 40.2052 35.2418 40.2246 36.0551 40.4633V41.7144C34.7265 43.1429 32.5837 42.4888 33.6551 40.7011L33.6541 40.7021ZM41.2939 38.7164C41.7306 38.2399 44.052 37.346 44.4092 38.7164V43.7593H46.2735V38.4184C45.8765 36.1939 43.7531 35.797 41.1745 37.3062V36.4725H39.4092V43.7991H41.2735L41.2939 38.7164ZM52.1265 36.3929L49.6867 39.6684L52.2663 43.6991L54.5082 43.6399L51.6714 39.7684L54.2306 36.4521L52.1275 36.3929H52.1265ZM47.6633 33.9899H49.5082V43.6991H47.6622V33.9909L47.6633 33.9899Z" fill="white"/>
<path id="Vector_3" fill-rule="evenodd" clip-rule="evenodd" d="M34.2306 11.6348H49.4285V26.8633H34.2306V11.6348Z" fill="white"/>
</g>
</g>
<defs>
<clipPath id="clip0_715_4316">
<rect x="0.5" width="59.2857" height="60" rx="10" fill="white"/>
</clipPath>
</defs>
</svg>
